# xmcd
#
# Track frame offsets: 
#        150
#        12798
#        25187
#        39240
#        51135
#        63749
#        75885
#        86974
#        98870
#        113468
#        127796
#        140560
#        155105
#        168081
#        182493
#        193940
#        205567
#        220060
#        233491
#        245491
#        257417
#        272299
#        286934
#        301288
#        315170
#
# Disc length: 4404 seconds
#
# Revision: 2
# Processed by: cddbd v1.5.2PL0 Copyright (c) Steve Scherf et al.
# Submitted via: ExactAudioCopy v0.99pb4
#
DISCID=39113219
DTITLE=Mildred Bailey - Mrs. Swing Mildred Bailey - Disc 4 There'll Ne
DTITLE=ver Be Another You
DYEAR=2005
DGENRE=Jazz Vocals
TTITLE0=Have You Forgotten So Soon
TTITLE1=They Say
TTITLE2=Blame It On My Last Affair
TTITLE3=St. Louis Blues
TTITLE4=Begin The Beguine
TTITLE5=Cuckoo In The Clock
TTITLE6=There'll Never Be Another You
TTITLE7='Tain't What You Do
TTITLE8=There'll Be Some Changes Made
TTITLE9=Gulf Coast Blues
TTITLE10=Prisoner Of Love
TTITLE11=The Lamp Is Low
TTITLE12=Moon Love
TTITLE13=Ghost Of A Chance
TTITLE14=You're The Moment In My Life
TTITLE15=I Thought About You
TTITLE16=Bluebirds In The Moonlight
TTITLE17=Darn That Dream
TTITLE18=Peace, Brother
TTITLE19=All The Things You Are
TTITLE20=Wham
TTITLE21=Give Me Time
TTITLE22=Don't Take Your Love From Me
TTITLE23=Arthur Murray Taught Me Dancing In A Hurry
TTITLE24=I'll Be Around
EXTD=YEAR: 1940
EXTT0=
EXTT1=
EXTT2=
EXTT3=
EXTT4=
EXTT5=
EXTT6=
EXTT7=
EXTT8=
EXTT9=
EXTT10=
EXTT11=
EXTT12=
EXTT13=
EXTT14=
EXTT15=
EXTT16=
EXTT17=
EXTT18=
EXTT19=
EXTT20=
EXTT21=
EXTT22=
EXTT23=
EXTT24=
PLAYORDER=
